<svg width="480" height="124" viewBox="0 0 480 124" fill="none" xmlns="http://www.w3.org/2000/svg">
<path d="M116.588 91.0001H93.1359L58.04 57.052L23.6 91.0001H0.147949L46.7239 46.064L0.147949 0.800049H23.6L116.588 91.0001ZM116.588 0.800049L77.556 38.848L65.7479 28.352L93.1359 0.800049H116.588Z" fill="#7963B0"/>
<path d="M234.28 95.1001C234.28 100.348 232.968 105.159 230.344 109.532C227.829 113.905 224.385 117.349 220.012 119.864C215.748 122.488 210.937 123.8 205.58 123.8H139.98V107.4H205.58C208.969 107.4 211.866 106.197 214.272 103.792C216.677 101.387 217.88 98.4894 217.88 95.1001V91.0001H172.78C166.548 91.0001 160.698 89.8521 155.232 87.5561C149.874 85.1507 145.118 81.8707 140.964 77.716C136.918 73.5614 133.748 68.8054 131.452 63.448C129.156 57.9814 128.008 52.1321 128.008 45.9001V0.800049H144.408V45.9001C144.408 51.1481 145.665 55.9587 148.18 60.3321C150.804 64.5961 154.248 68.04 158.512 70.664C162.776 73.1787 167.532 74.4907 172.78 74.6001H217.88V0.800049H234.28V95.1001Z" fill="#7963B0"/>
<path d="M274.329 91.0001H257.929V0.800049H319.429C325.661 0.800049 331.456 2.00272 336.813 4.40805C342.28 6.70405 347.036 9.92938 351.081 14.084C355.236 18.2387 358.461 23.0494 360.757 28.516C363.053 33.8734 364.201 39.668 364.201 45.9001V91.0001H347.801V45.9001C347.801 40.6521 346.544 35.896 344.029 31.632C341.514 27.2587 338.07 23.76 333.697 21.136C329.433 18.512 324.677 17.2 319.429 17.2H274.329V91.0001Z" fill="#7963B0"/>
<path d="M479.034 91.0001H425.406C419.174 91.0001 413.325 89.8521 407.858 87.5561C402.501 85.1507 397.745 81.8707 393.59 77.716C389.545 73.5614 386.374 68.8054 384.078 63.448C381.782 57.9814 380.634 52.1321 380.634 45.9001C380.634 39.668 381.782 33.8734 384.078 28.516C386.374 23.0494 389.545 18.2387 393.59 14.084C397.745 9.92938 402.501 6.70405 407.858 4.40805C413.325 2.00272 419.174 0.800049 425.406 0.800049H479.034V17.2H425.406C420.158 17.2 415.402 18.512 411.138 21.136C406.874 23.76 403.43 27.2587 400.806 31.632C398.292 35.896 397.034 40.6521 397.034 45.9001C397.034 51.1481 398.292 55.9587 400.806 60.3321C403.43 64.5961 406.874 68.04 411.138 70.664C415.402 73.288 420.158 74.6001 425.406 74.6001H479.034V91.0001Z" fill="#7963B0"/>
</svg>
